# xmcd
#
# Track frame offsets: 
#        187
#        16255
#        33087
#        48127
#        60712
#        77980
#        94742
#        106857
#        116415
#        135650
#
# Disc length: 1899 seconds
#
# Revision: 3
# Processed by: cddbd v1.5.1PL2 Copyright (c) Steve Scherf et al.
# Submitted via: ExactAudioCopy v0.95b3
#
DISCID=7207690a
DTITLE=Clint Black - Looking For Christmas
DYEAR=1900
DGENRE=Christmas
TTITLE0=The Finest Gift
TTITLE1=Under The Mistletoe
TTITLE2=The Kid
TTITLE3=The Coolest Pair
TTITLE4=Looking For Christmas
TTITLE5=Christmas For Every Boy And Girl
TTITLE6=Til' Santa's Gone (Milk And Cookies)
TTITLE7=Slow As Christmas
TTITLE8=The Birth Of The King
TTITLE9=Looking For Christmas (Reprise)
EXTD=
EXTT0=
EXTT1=
EXTT2=
EXTT3=
EXTT4=
EXTT5=
EXTT6=
EXTT7=
EXTT8=
EXTT9=
PLAYORDER=
